#!OML:ASF H:\Terrain\Patient Classification 1\Terrain2\Thursday\justin.ASF
:FULLY-SPECIFIED
:DEGREES
2228
root 24.9363 17.6146 -21.384 862.19 96.3585 507.228
lowerback 6.16466 1.61665 2.63235
upperback 2.07248 2.4051 2.07841
thorax -1.30106 1.22573 0.48853
lowerneck -15.0689 -3.2398 -8.35733
upperneck 35.3773 -2.52665 4.1886
head 15.0322 -1.21261 2.9076
rclavicle -2.15681e-014 -1.88845e-014
rhumerus -35.5985 -14.3569 -76.0602
rradius 27.0106
rwrist -8.05052
rhand -17.9843 12.6319
rfingers 7.12502
rthumb 8.28546 -17.1856
lclavicle -2.15681e-014 -1.88845e-014
lhumerus -34.7122 8.3055 82.4331
lradius 24.5071
lwrist -3.93681
lhand -15.7509 21.031
lfingers 7.12502
lthumb 10.4405 50.7517
rfemur -6.41496 -5.35154 21.9804
rtibia 62.601
rfoot -6.28014 -9.94383
rtoes 6.91288
lfemur -10.0489 0.301191 -15.6471
ltibia 16.9938
lfoot 3.41059 -13.5162
ltoes 22.25
2229
root 25.0077 17.6225 -21.3917 863.204 96.1638 508.197
lowerback 6.24985 1.54917 2.42404
upperback 2.08582 2.30286 1.99043
thorax -1.34036 1.17376 0.519162
lowerneck -14.9896 -3.20767 -8.27253
upperneck 35.1687 -2.54801 4.24227
head 14.9137 -1.20548 2.90348
rclavicle -1.42007e-014 -7.95139e-016
rhumerus -35.5664 -13.8491 -76.4796
rradius 27.0204
rwrist -7.97778
rhand -18.3537 12.4671
rfingers 7.12502
rthumb 7.929 -17.3642
lclavicle -1.42007e-014 -7.95139e-016
lhumerus -34.5981 7.80767 82.4411
lradius 25.0845
lwrist -3.25703
lhand -15.9879 20.9593
lfingers 7.12502
lthumb 10.2118 50.6914
rfemur -7.16021 -5.80973 21.8364
rtibia 62.6571
rfoot -7.5467 -10.3768
rtoes 6.50799
lfemur -9.87062 0.075799 -15.9609
ltibia 17.0597
lfoot 2.97684 -13.3521
ltoes 21.4787
2230
root 25.0756 17.6316 -21.3974 865.617 95.7898 510.528
lowerback 6.29433 1.40622 1.96442
upperback 2.09624 2.0809 1.86245
thorax -1.3678 1.06141 0.659312
lowerneck -15.0553 -3.1335 -8.1523
upperneck 35.1488 -2.45457 4.18099
head 14.9071 -1.16013 2.87092
rclavicle 4.65156e-014 1.59028e-015
rhumerus -35.5246 -13.2806 -76.9069
rradius 27.0768
rwrist -7.96016
rhand -18.2069 12.6285
rfingers 7.12502
rthumb 8.07062 -17.1974
lclavicle 4.65156e-014 1.59028e-015
lhumerus -34.4666 7.49114 82.3756
lradius 25.6539
lwrist -2.57233
lhand -16.0817 21.0194
lfingers 7.12502
lthumb 10.1213 50.756
rfemur -7.96184 -6.43351 21.4113
rtibia 62.5775
rfoot -8.63523 -10.4807
rtoes 6.40913
lfemur -9.8396 -0.0201767 -16.5159
ltibia 17.2443
lfoot 2.63997 -13.3375
ltoes 21.174
2231
root 25.1373 17.6391 -21.4043 864.811 95.8657 509.518
lowerback 6.29539 1.33707 2.08942
upperback 2.08664 1.99886 1.91882
thorax -1.37616 1.0208 0.653105
lowerneck -15.1872 -3.12967 -8.19547
upperneck 35.1676 -2.39452 4.08665
head 14.9421 -1.15552 2.8489
rclavicle 7.52897e-015 5.76476e-015
rhumerus -35.5248 -13.1548 -77.0305
rradius 27.2653
rwrist -7.60736
rhand -17.7044 12.704
rfingers 7.12502
rthumb 8.5556 -17.1026
lclavicle 7.52897e-015 5.76476e-015
lhumerus -34.2806 7.20979 82.4216
lradius 26.2031
lwrist -2.06392
lhand -16.154 20.9502
lfingers 7.12502
lthumb 10.0516 50.6902
rfemur -8.91926 -6.77689 21.6486
rtibia 62.3529
rfoot -9.76113 -10.321
rtoes 7.06141
lfemur -9.91321 -0.131545 -16.4422
ltibia 17.4148
lfoot 2.29304 -13.1631
ltoes 20.9223
2232
root 25.2007 17.6365 -21.405 862.681 96.1287 507.153
lowerback 6.25313 1.31439 2.32655
upperback 2.07342 1.98787 2.08441
thorax -1.36409 1.01649 0.692435
lowerneck -15.242 -3.12622 -8.24553
upperneck 35.0783 -2.35132 4.01228
head 14.9096 -1.15635 2.82981
rclavicle -1.64867e-014 -1.63003e-014
rhumerus -35.601 -13.0871 -77.126
rradius 27.5727
rwrist -7.44659
rhand -17.6462 12.9505
rfingers 7.12502
rthumb 8.61176 -16.8539
lclavicle -1.64867e-014 -1.63003e-014
lhumerus -34.0753 7.07947 82.465
lradius 26.6965
lwrist -1.81644
lhand -16.2179 20.8184
lfingers 7.12502
lthumb 9.98995 50.5614
rfemur -9.76831 -7.02064 22.1849
rtibia 61.9291
rfoot -10.8755 -9.7535
rtoes 6.48234
lfemur -9.95389 -0.315442 -16.0526
ltibia 17.5193
lfoot 2.02931 -12.9127
ltoes 21.6086
2233
root 25.2669 17.6285 -21.4084 863.351 95.9776 507.697
lowerback 6.27239 1.24417 2.08704
upperback 2.06241 1.88111 2.11484
thorax -1.39538 0.962561 0.864703
lowerneck -15.302 -3.08388 -8.26864
upperneck 35.0834 -2.25195 3.94239
head 14.9176 -1.12778 2.82121
rclavicle -1.77167e-014 -2.82274e-014
rhumerus -35.7188 -13.0891 -77.1317
rradius 27.8463
rwrist -7.45826
rhand -17.7283 13.2072
rfingers 7.12502
rthumb 8.53258 -16.6004
lclavicle -1.77167e-014 -2.82274e-014
lhumerus -33.9115 6.80674 82.5478
lradius 27.209
lwrist -1.16488
lhand -16.6277 20.932
lfingers 7.12502
lthumb 9.5946 50.6935
rfemur -10.4336 -7.54724 22.1209
rtibia 61.3474
rfoot -11.8237 -9.01862
rtoes 5.85446
lfemur -10 -0.44074 -16.2631
ltibia 17.803
lfoot 1.60447 -12.9026
ltoes 21.26
2234
root 25.3286 17.6416 -21.4132 865.955 95.5677 510.194
lowerback 6.31235 1.12861 1.60649
upperback 2.05759 1.69518 2.03187
thorax -1.43391 0.868266 1.06102
lowerneck -15.3358 -3.00443 -8.27322
upperneck 35.0997 -2.11848 3.91392
head 14.9216 -1.07619 2.83319
rclavicle 1.18898e-014 -1.78906e-014
rhumerus -35.7363 -13.1886 -77.069
rradius 28.0584
rwrist -7.21413
rhand -17.5267 12.5352
rfingers 7.12502
rthumb 8.72709 -17.2644
lclavicle 1.18898e-014 -1.78906e-014
lhumerus -33.7963 6.62079 82.6001
lradius 27.7881
lwrist -0.518527
lhand -17.289 20.9443
lfingers 7.12502
lthumb 8.95643 50.7342
rfemur -11.104 -7.00564 22.1281
rtibia 60.5828
rfoot -12.7878 -9.32014
rtoes 6.15063
lfemur -10.1434 -0.39335 -16.8564
ltibia 18.2255
lfoot 1.16212 -13.1097
ltoes 20.0008
2235
root 25.3885 17.6443 -21.4115 864.917 95.3817 509.061
lowerback 6.41225 0.974292 1.38003
upperback 2.05321 1.4818 2.12313
thorax -1.50051 0.761867 1.29579
lowerneck -15.423 -2.91658 -8.20606
upperneck 35.1712 -1.9787 3.85561
head 14.9617 -1.01662 2.82302
rclavicle -1.61761e-014 -2.78299e-014
rhumerus -35.696 -12.8072 -77.2352
rradius 28.2419
rwrist -7.37829
rhand -17.6383 12.1081
rfingers 7.12502
rthumb 8.6194 -17.696
lclavicle -1.61761e-014 -2.78299e-014
lhumerus -33.7115 6.64162 82.6372
lradius 28.3802
lwrist -0.133306
lhand -17.6234 20.9688
lfingers 7.12502
lthumb 8.6338 50.7723
rfemur -11.7351 -6.79041 22.4524
rtibia 59.6933
rfoot -13.9604 -9.21247
rtoes 4.83566
lfemur -10.3124 -0.556284 -16.9169
ltibia 18.7131
lfoot 0.756925 -13.1782
ltoes 19.7757
2236
root 25.4489 17.6349 -21.4048 864.064 95.4945 508.006
lowerback 6.39709 0.939492 1.24525
upperback 2.01823 1.43065 2.24608
thorax -1.53382 0.736422 1.50179
lowerneck -15.4887 -2.86988 -8.05134
upperneck 35.26 -1.917 3.76582
head 15.0097 -0.982322 2.77153
rclavicle 5.73991e-015 4.77083e-015
rhumerus -35.7178 -12.1754 -77.6027
rradius 28.4878
rwrist -8.38682
rhand -17.9904 12.7006
rfingers 7.12502
rthumb 8.27961 -17.1171
lclavicle 5.73991e-015 4.77083e-015
lhumerus -33.5893 6.23999 82.7429
lradius 28.9775
lwrist 0.555571
lhand -17.8079 21.1002
lfingers 7.12502
lthumb 8.45575 50.9109
rfemur -12.4634 -6.64425 22.8711
rtibia 58.698
rfoot -15.0238 -8.7419
rtoes 2.38512
lfemur -10.6142 -0.58348 -16.7404
ltibia 19.3145
lfoot 0.265899 -13.1513
ltoes 20.4443
